Coordinates
version=1
nRows=26
nColumns=24
inDegrees=yes

Units are S.I. units (second, meters, Newtons, ...)
Angles are in degrees.

endheader
time	pelvis_tilt	pelvis_list	pelvis_rotation	pelvis_tx	pelvis_ty	pelvis_tz	hip_flexion_r	hip_adduction_r	hip_rotation_r	knee_angle_r	ankle_angle_r	subtalar_angle_r	mtp_angle_r	hip_flexion_l	hip_adduction_l	hip_rotation_l	knee_angle_l	ankle_angle_l	subtalar_angle_l	mtp_angle_l	lumbar_extension	lumbar_bending	lumbar_rotation
      0.55800000	     -0.44161985	      2.80867935	      3.18599571	     -0.78891486	      0.99338299	      0.23043803	     22.67848320	     -2.27673884	     -5.82453239	      1.31954572	      4.56469174	    -11.37236346	      8.15997653	    -18.66130988	      4.35962977	      7.34014564	     -5.50728272	     10.22585271	    -11.83562581	      5.08413324	     -1.63812437	     -4.57835930	     -5.62128769
      0.56216667	     -0.44302132	      2.73123077	      3.25607573	     -0.78267803	      0.99283816	      0.23079487	     22.68248818	     -2.18476448	     -5.55420776	      0.91784694	      4.59093674	    -11.63942815	      8.14981101	    -18.72160724	      4.21912946	      7.28492003	     -6.11214084	     10.26503363	    -11.59053418	      5.14958091	     -1.58282538	     -4.46626027	     -5.76206994
      0.56633333	     -0.43422918	      2.63049397	      3.32887035	     -0.77637837	      0.99234145	      0.23115440	     22.66353173	     -2.06504914	     -5.28201580	      0.48642440	      4.55792241	    -11.94476523	      8.15065094	    -18.77288328	      4.05179212	      7.20103727	     -6.75879240	     10.30298928	    -11.29462871	      5.24679317	     -1.52793682	     -4.32205501	     -5.86735099
      0.57050000	     -0.42952313	      2.52025746	      3.39900952	     -0.77002150	      0.99187004	      0.23153040	     22.64265159	     -1.93091961	     -5.00392689	      0.02130260	      4.46442991	    -12.28354830	      8.16442882	    -18.80259636	      3.87502747	      7.09623497	     -7.43783053	     10.32063363	    -10.98409831	      5.38205526	     -1.46184541	     -4.16717866	     -5.97129317
      0.57466667	     -0.41760171	      2.40260256	      3.46906198	     -0.76362174	      0.99143937	      0.23191741	     22.60445000	     -1.78450020	     -4.72178008	     -0.46290483	      4.31878989	    -12.65156280	      8.19112973	    -18.81596081	      3.69011997	      6.96751046	     -8.16453271	     10.30944589	    -10.66559801	      5.55081476	     -1.39507449	     -4.00040421	     -6.06977386
      0.57883333	     -0.41429577	      2.26162446	      3.53527454	     -0.75715573	      0.99102105	      0.23231330	     22.57110071	     -1.60915946	     -4.44120076	     -0.97585361	      4.14426879	    -13.04718477	      8.22458793	    -18.80706046	      3.48378049	      6.84105089	     -8.91778672	     10.30227885	    -10.36011221	      5.72429465	     -1.30998367	     -3.79848173	     -6.16687533
      0.58300000	     -0.39903884	      2.11869065	      3.59886281	     -0.75065937	      0.99065186	      0.23273224	     22.51718623	     -1.42589042	     -4.17075310	     -1.49530223	      3.85991011	    -13.46847179	      8.26889186	    -18.77828686	      3.27154295	      6.65178316	     -9.73066904	     10.22107915	    -10.00121892	      5.93663447	     -1.23506565	     -3.60506657	     -6.25390477
      0.58716667	     -0.36631451	      1.97817002	      3.66660707	     -0.74414866	      0.99033896	      0.23316912	     22.42931697	     -1.24103853	     -3.89324112	     -2.00395942	      3.52725477	    -13.91401854	      8.33243877	    -18.73331423	      3.05509675	      6.42640027	    -10.60540261	     10.12761620	     -9.59571192	      6.22252288	     -1.18005933	     -3.42254417	     -6.32767568
      0.59133333	     -0.35129314	      1.82229591	      3.71098967	     -0.73759282	      0.99001264	      0.23363114	     22.39644797	     -1.03559302	     -3.69623369	     -2.60193840	      3.21574137	    -14.22525755	      9.52603089	    -18.64351642	      2.82665580	      6.13176070	    -11.52219039	      9.96818019	     -9.19845233	     11.38782088	     -1.09710712	     -3.21132889	     -6.32703375
      0.59550000	     -0.34987301	      1.64422787	      3.78172684	     -0.73096057	      0.98974585	      0.23406332	     22.33183190	     -0.81065501	     -3.46772972	     -3.12840059	      2.76255926	    -14.70376367	      9.52070023	    -18.54659595	      2.57829850	      5.97860837	    -12.42021090	      9.73272758	     -8.95909387	     11.43716320	     -0.98246356	     -2.96931127	     -6.45481768
      0.59966667	     -0.31586536	      1.48780838	      3.83328799	     -0.72438858	      0.98951968	      0.23457514	     22.23972107	     -0.59476998	     -3.20547774	     -3.66962755	      2.32760941	    -15.18810509	      9.52878750	    -18.40213303	      2.33917343	      5.65058905	    -13.47838895	      9.55360292	     -8.48333397	     11.56424421	     -0.91621016	     -2.77215298	     -6.50476549
      0.60383333	     -0.29969683	      1.31699762	      3.87592065	     -0.71778007	      0.98930593	      0.23508826	     22.18041527	     -0.36428176	     -2.99578102	     -4.24885255	      1.87872830	    -15.60199639	      9.54742937	    -18.22937691	      2.08980670	      5.34737079	    -14.54620747	      9.31057437	     -8.05439617	     11.76080708	     -0.82536026	     -2.54987134	     -6.54145637
      0.60800000	     -0.26447025	      1.14051132	      3.90562026	     -0.71118115	      0.98914226	      0.23563659	     22.11761999	     -0.12180397	     -2.80993720	     -4.86691292	      1.42392644	    -16.01014684	      9.58115609	    -18.04352496	      1.83072089	      5.00532171	    -15.66772189	      9.04842972	     -7.58337165	     12.08524258	     -0.76054293	     -2.31586914	     -6.57209827
      0.61216667	     -0.18705021	      0.93673800	      3.92945318	     -0.70454648	      0.98906764	      0.23621851	     21.98787361	      0.15562897	     -2.62965391	     -5.44644133	      0.99347024	    -16.37609832	      9.66025786	    -17.86968663	      1.52615422	      4.57919320	    -16.84164638	      8.66818483	     -7.06276687	     12.85979611	     -0.73491839	     -2.04664466	     -6.58596138
      0.61633333	     -0.17839678	      0.74609591	      3.95133046	     -0.69794220	      0.98892833	      0.23680857	     21.95693150	      0.41260846	     -2.48349098	     -6.07725881	      0.53824662	    -16.70195781	      9.73354001	    -17.57606500	      1.23902699	      4.17250712	    -18.09611523	      8.28095538	     -6.57694184	     13.72616468	     -0.62739742	     -1.80173980	     -6.60262706
      0.62050000	     -0.21205764	      0.58300458	      3.97407244	     -0.69140697	      0.98875450	      0.23738514	     22.00803265	      0.63072400	     -2.39549449	     -6.78413988	      0.11788168	    -16.94006628	      9.75953670	    -17.20540400	      0.99682880	      3.87304865	    -19.40399534	      7.86863479	     -6.27414745	     14.15054612	     -0.47836973	     -1.59562484	     -6.58757929
      0.62466667	     -0.17062513	      0.38453121	      3.97833669	     -0.68483247	      0.98873472	      0.23803110	     21.93911185	      0.90369969	     -2.25488597	     -7.41199451	     -0.32699010	    -17.26077363	     10.09305027	    -16.89193188	      0.69081740	      3.45628162	    -20.71591352	      7.22882562	     -5.96767402	     20.87589629	     -0.41256635	     -1.34110308	     -6.57064919
      0.62883333	     -0.15055281	      0.19705664	      3.97981785	     -0.67833270	      0.98867883	      0.23866592	     21.94969889	      1.15171967	     -2.23456426	     -8.16076323	     -0.59556405	    -17.30854951	     10.08352950	    -16.50276758	      0.39342786	      3.03528008	    -22.13561507	      6.69877432	     -5.52041856	     20.95054171	     -0.32893078	     -1.09450663	     -6.54336241
      0.63300000	     -0.14325408	      0.00991815	      3.97472731	     -0.67185682	      0.98864979	      0.23933778	     21.95705705	      1.40435475	     -2.16969896	     -8.87373089	     -0.88162675	    -17.42304024	     10.06996768	    -16.06390030	      0.09317399	      2.62828615	    -23.60233063	      6.08114092	     -5.14333719	     21.05848258	     -0.22718636	     -0.86267399	     -6.50986443
      0.63716667	     -0.11588115	     -0.17510445	      3.95469624	     -0.66545791	      0.98864316	      0.24003667	     21.97377335	      1.65847342	     -2.13076170	     -9.64931670	     -1.11935368	    -17.54194346	     10.04609604	    -15.61470095	     -0.21231669	      2.20978835	    -25.11702524	      5.45232245	     -4.73351814	     21.24196417	     -0.17366470	     -0.61793699	     -6.46374971
      0.64133333	     -0.10251957	     -0.35840645	      3.93389239	     -0.65908710	      0.98866029	      0.24075100	     21.99675920	      1.90886469	     -2.10018229	    -10.41034711	     -1.30651940	    -17.60136386	     10.01644170	    -15.11600322	     -0.52320602	      1.80077747	    -26.67222896	      4.75041512	     -4.38382487	     21.45027041	     -0.09596472	     -0.38564738	     -6.41354869
      0.64550000	     -0.07488894	     -0.53939873	      3.90541336	     -0.65278515	      0.98870169	      0.24148196	     22.01111746	      2.15835525	     -2.07993833	    -11.18336997	     -1.43752250	    -17.62673567	      9.97584489	    -14.60278895	     -0.83653874	      1.40837861	    -28.26758337	      4.02567234	     -4.06175239	     21.69673094	     -0.04499994	     -0.15466880	     -6.35528539
      0.64966667	     -0.06632106	     -0.71477488	      3.87377923	     -0.64653419	      0.98874506	      0.24222367	     22.04510239	      2.40070512	     -2.06805936	    -11.95640627	     -1.52303611	    -17.62862582	      9.92769590	    -14.03610051	     -1.14680013	      1.03873408	    -29.90246923	      3.24668318	     -3.80099296	     21.94935730	      0.02461204	      0.06776789	     -6.29246758
      0.65383333	     -0.03369448	     -0.89350980	      3.84117425	     -0.64031464	      0.98885255	      0.24297226	     22.02757299	      2.65001051	     -2.04991121	    -12.67819770	     -1.55423961	    -17.59478190	      9.88514357	    -13.47654924	     -1.46883600	      0.68251426	    -31.54851994	      2.40035798	     -3.60985408	     22.14412984	      0.06940201	      0.28770440	     -6.22980716
      0.65800000	     -0.01678044	     -1.05741556	      3.80550280	     -0.63419428	      0.98894386	      0.24372291	     22.04504731	      2.88053889	     -2.05930408	    -13.43543489	     -1.55612111	    -17.56632304	      9.83031603	    -12.86418600	     -1.77523334	      0.35947742	    -33.23976341	      1.58709092	     -3.43861392	     22.35154671	      0.11202921	      0.50302582	     -6.15847330
      0.66216667	     -0.01692634	     -1.21690271	      3.76690361	     -0.62813716	      0.98902490	      0.24448584	     22.07873867	      3.10701455	     -2.07171958	    -14.18896812	     -1.52366516	    -17.51991542	      9.75486584	    -12.20994740	     -2.07364248	      0.08025142	    -34.95055242	      0.77059103	     -3.31944683	     22.58511051	      0.15970935	      0.70138904	     -6.08399999
